<svg width="24" height="25" viewBox="0 0 24 25" fill="none" xmlns="http://www.w3.org/2000/svg">
<g clip-path="url(#clip0_0_4658)">
<path d="M10 11C12.21 11 14 9.21 14 7C14 4.79 12.21 3 10 3C7.79 3 6 4.79 6 7C6 9.21 7.79 11 10 11ZM10 5C10.5304 5 11.0391 5.21071 11.4142 5.58579C11.7893 5.96086 12 6.46957 12 7C12 7.53043 11.7893 8.03914 11.4142 8.41421C11.0391 8.78929 10.5304 9 10 9C8.89 9 8 8.11 8 7C8 5.89 8.9 5 10 5ZM9.27 19H2V16C2 13.33 7.33 12 10 12C11.04 12 12.5 12.21 13.86 12.61C13 12.95 12.2 13.42 11.5 14C11 13.94 10.5 13.9 10 13.9C7.03 13.9 3.9 15.36 3.9 16V17.1H9.22C9.2 17.15 9.17 17.2 9.14 17.25L8.85 18L9.14 18.75C9.18 18.83 9.23 18.91 9.27 19ZM17 17C17.56 17 18 17.44 18 18C18 18.56 17.56 19 17 19C16.44 19 16 18.56 16 18C16 17.44 16.44 17 17 17ZM17 14C14.27 14 11.94 15.66 11 18C11.94 20.34 14.27 22 17 22C19.73 22 22.06 20.34 23 18C22.06 15.66 19.73 14 17 14ZM17 20.5C16.337 20.5 15.7011 20.2366 15.2322 19.7678C14.7634 19.2989 14.5 18.663 14.5 18C14.5 17.337 14.7634 16.7011 15.2322 16.2322C15.7011 15.7634 16.337 15.5 17 15.5C17.663 15.5 18.2989 15.7634 18.7678 16.2322C19.2366 16.7011 19.5 17.337 19.5 18C19.5 18.663 19.2366 19.2989 18.7678 19.7678C18.2989 20.2366 17.663 20.5 17 20.5Z" fill="#0F094F"/>
</g>
<defs>
<clipPath id="clip0_0_4658">
<rect width="24" height="24" fill="white" transform="translate(0 0.5)"/>
</clipPath>
</defs>
</svg>
