<svg width="28" height="28" viewBox="0 0 28 28" fill="none" xmlns="http://www.w3.org/2000/svg">
<path d="M2.625 5.25V22.75H25.375V5.25H2.625ZM4.375 7H23.625V21H20.6448C20.5765 20.8801 20.6071 20.7165 20.5074 20.6168C20.1775 20.286 19.7076 20.125 19.25 20.125C18.7924 20.125 18.3234 20.286 17.9918 20.6176C17.8929 20.7165 17.9235 20.8801 17.8553 21H10.1447C10.0765 20.8801 10.1071 20.7165 10.0082 20.6168C9.67575 20.286 9.20762 20.125 8.75 20.125C8.29238 20.125 7.82338 20.286 7.49175 20.6176C7.39288 20.7165 7.4235 20.8801 7.35525 21H4.375V7ZM10.5 8.75C8.575 8.75 7 10.325 7 12.25C7 13.2239 7.41738 14.1024 8.06662 14.7385C7.4713 15.1407 6.98323 15.6822 6.64485 16.316C6.30646 16.9497 6.12801 17.6566 6.125 18.375H7.875C7.875 17.6788 8.15156 17.0111 8.64384 16.5188C9.13613 16.0266 9.80381 15.75 10.5 15.75C11.1962 15.75 11.8639 16.0266 12.3562 16.5188C12.8484 17.0111 13.125 17.6788 13.125 18.375H14.875C14.872 17.6566 14.6935 16.9497 14.3552 16.316C14.0168 15.6822 13.5287 15.1407 12.9334 14.7385C13.5826 14.1024 14 13.2248 14 12.25C14 10.325 12.425 8.75 10.5 8.75ZM10.5 10.5C11.4774 10.5 12.25 11.2726 12.25 12.25C12.25 13.2274 11.4774 14 10.5 14C9.52262 14 8.75 13.2274 8.75 12.25C8.75 11.2726 9.52262 10.5 10.5 10.5ZM16.625 11.375V13.125H21.875V11.375H16.625ZM16.625 14.875V16.625H21.875V14.875H16.625Z" fill="#0F094F"/>
</svg>
