<svg width="15" height="15" viewBox="0 0 15 15" fill="none" xmlns="http://www.w3.org/2000/svg">
<g clip-path="url(#clip0_0_4247)">
<path d="M8.32861 7.50025L14.8283 1.00052C15.0571 0.77168 15.0571 0.400665 14.8283 0.171857C14.5995 -0.0569512 14.2285 -0.0569805 13.9996 0.171857L7.49992 6.67159L1.00021 0.171857C0.771375 -0.0569805 0.40036 -0.0569805 0.171552 0.171857C-0.0572564 0.400695 -0.0572857 0.77171 0.171552 1.00052L6.67126 7.50022L0.171552 14C-0.0572857 14.2288 -0.0572857 14.5998 0.171552 14.8286C0.285956 14.943 0.435926 15.0002 0.585897 15.0002C0.735867 15.0002 0.885808 14.943 1.00024 14.8286L7.49992 8.32891L13.9996 14.8286C14.114 14.943 14.264 15.0002 14.414 15.0002C14.5639 15.0002 14.7139 14.943 14.8283 14.8286C15.0571 14.5998 15.0571 14.2288 14.8283 14L8.32861 7.50025Z" fill="#0F094F"/>
</g>
<defs>
<clipPath id="clip0_0_4247">
<rect width="15" height="15" fill="white"/>
</clipPath>
</defs>
</svg>
