<svg width="32" height="32" viewBox="0 0 32 32" fill="none" xmlns="http://www.w3.org/2000/svg">
<g clip-path="url(#clip0_88_1278)">
<path d="M26.3333 4.66667H25V2H22.3333V4.66667H11.6667V2H9V4.66667H7.66667C6.19333 4.66667 5 5.86 5 7.33333V26C5 27.4733 6.19333 28.6667 7.66667 28.6667H26.3333C27.8067 28.6667 29 27.4733 29 26V7.33333C29 5.86 27.8067 4.66667 26.3333 4.66667ZM17 8.66667C19.2067 8.66667 21 10.46 21 12.6667C21 14.88 19.2067 16.6667 17 16.6667C14.7933 16.6667 13 14.88 13 12.6667C13 10.46 14.7933 8.66667 17 8.66667ZM25 24.6667H9V23.3333C9 20.6667 14.3333 19.2 17 19.2C19.6667 19.2 25 20.6667 25 23.3333V24.6667Z" fill="#0F094F"/>
</g>
<defs>
<clipPath id="clip0_88_1278">
<rect width="32" height="32" fill="white"/>
</clipPath>
</defs>
</svg>
