<svg width="20" height="19" viewBox="0 0 20 19" fill="none" xmlns="http://www.w3.org/2000/svg">
<path d="M17.3259 15.2105H2.08131C1.52955 15.21 1.00053 14.9865 0.610336 14.5891C0.220139 14.1916 0.00063911 13.6527 0 13.0905V2.77606C0.000638881 2.21385 0.220124 1.67486 0.610306 1.27733C1.00049 0.879791 1.52951 0.656169 2.08131 0.655518H17.3259C17.8776 0.656169 18.4066 0.879807 18.7967 1.27736C19.1868 1.67491 19.4062 2.2139 19.4067 2.77606V13.0905C19.4062 13.6526 19.1868 14.1915 18.7967 14.589C18.4066 14.9865 17.8776 15.21 17.3259 15.2105ZM2.08131 2.13119C1.91348 2.13132 1.75256 2.1993 1.63389 2.32021C1.51522 2.44112 1.4485 2.60507 1.44837 2.77606V13.0905C1.44862 13.2614 1.51541 13.4252 1.63406 13.546C1.75272 13.6668 1.91356 13.7347 2.08131 13.7349H17.3259C17.4935 13.7346 17.6543 13.6666 17.7728 13.5459C17.8914 13.4251 17.9581 13.2613 17.9583 13.0905V2.77606C17.9582 2.60515 17.8915 2.44128 17.773 2.32038C17.6544 2.19949 17.4936 2.13145 17.3259 2.13119H2.08131Z" fill="white"/>
<path d="M13.1911 18.8493H6.21536C6.09259 18.8491 5.97168 18.8186 5.86304 18.7604C5.7544 18.7022 5.66127 18.618 5.59166 18.515C5.52205 18.4121 5.47804 18.2935 5.46341 18.1694C5.44878 18.0453 5.46397 17.9194 5.50768 17.8026L6.51866 15.1011C6.57331 14.9551 6.67023 14.8294 6.79659 14.7406C6.92296 14.6519 7.07281 14.6042 7.22634 14.6041H12.1801C12.3336 14.6042 12.4835 14.6519 12.6099 14.7406C12.7362 14.8294 12.8331 14.9551 12.8878 15.1011L13.8988 17.8026C13.9425 17.9194 13.9577 18.0453 13.943 18.1694C13.9284 18.2935 13.8844 18.4121 13.8148 18.515C13.7452 18.618 13.652 18.7022 13.5434 18.7604C13.4348 18.8186 13.3139 18.8491 13.1911 18.8493ZM7.31581 17.3056H12.0906L11.6574 16.1478H7.74952L7.31581 17.3056Z" fill="white"/>
<path d="M14.4463 18.8493H4.96016C4.77052 18.8493 4.58864 18.7534 4.45455 18.5828C4.32045 18.4122 4.24512 18.1809 4.24512 17.9396C4.24512 17.6983 4.32045 17.4669 4.45455 17.2963C4.58864 17.1257 4.77052 17.0299 4.96016 17.0299H14.4463C14.636 17.0299 14.8179 17.1257 14.952 17.2963C15.0861 17.4669 15.1614 17.6983 15.1614 17.9396C15.1614 18.1809 15.0861 18.4122 14.952 18.5828C14.8179 18.7534 14.636 18.8493 14.4463 18.8493Z" fill="white"/>
</svg>
