<svg width="33" height="38" viewBox="0 0 33 38" fill="none" xmlns="http://www.w3.org/2000/svg">
<path d="M29.3333 3.8H27.5V0H23.8333V3.8H9.16667V0H5.5V3.8H3.66667C1.64083 3.8 0 5.5005 0 7.6V34.2C0 36.2995 1.64083 38 3.66667 38H29.3333C31.3592 38 33 36.2995 33 34.2V7.6C33 5.5005 31.3592 3.8 29.3333 3.8ZM16.5 9.5C19.5342 9.5 22 12.0555 22 15.2C22 18.354 19.5342 20.9 16.5 20.9C13.4658 20.9 11 18.354 11 15.2C11 12.0555 13.4658 9.5 16.5 9.5ZM27.5 32.3H5.5V30.4C5.5 26.6 12.8333 24.51 16.5 24.51C20.1667 24.51 27.5 26.6 27.5 30.4V32.3Z" fill="#021A4B"/>
</svg>
