<svg width="45" height="18" viewBox="0 0 45 18" fill="none" xmlns="http://www.w3.org/2000/svg">
<path d="M7.03125 18L0 10.95L1.93966 8.9C4.75216 5.93333 7.96099 3.70867 11.5662 2.226C15.1713 0.743333 18.8159 0.00133333 22.5 0C26.1853 0 29.8222 0.742 33.4106 2.226C36.9989 3.71 40.2155 5.93467 43.0603 8.9L45 10.95L37.9687 18L30.2586 12V5.3C29.0302 4.9 27.7694 4.58333 26.4763 4.35C25.1832 4.11667 23.8578 4 22.5 4C21.1422 4 19.8168 4.11667 18.5237 4.35C17.2306 4.58333 15.9698 4.9 14.7414 5.3V12L7.03125 18Z" fill="white"/>
</svg>
