<svg width="32" height="32" viewBox="0 0 32 32" fill="none" xmlns="http://www.w3.org/2000/svg">
<path fill-rule="evenodd" clip-rule="evenodd" d="M14.6365 8.33778C15.4178 9.20382 15.1701 10.185 14.4793 11.1159C14.3155 11.3366 14.1267 11.5541 13.8987 11.7937C13.7892 11.9087 13.7039 11.9953 13.5254 12.1739C13.12 12.5797 12.7792 12.9207 12.503 13.1969C12.3691 13.3308 13.2835 15.1581 15.0582 16.9345C16.8319 18.7099 18.6591 19.625 18.7936 19.4903L19.8153 18.4681C20.3779 17.9049 20.6759 17.6332 21.0853 17.3646C21.9364 16.8062 22.8648 16.6545 23.6478 17.3546C26.2043 19.1833 27.651 20.3055 28.3598 21.0419C29.7422 22.4783 29.561 24.6893 28.3676 25.9507C27.9538 26.3881 27.4291 26.9131 26.8094 27.5105C23.0607 31.2613 15.1491 28.9787 9.08576 22.9094C3.02103 16.8387 0.739661 8.92639 4.48053 5.18351C5.15212 4.50136 5.37355 4.28004 6.02763 3.63556C7.24539 2.43565 9.55842 2.24777 10.9645 3.63675C11.7041 4.36736 12.8832 5.88447 14.6365 8.33778ZM21.7001 20.3535L20.6782 21.3759C18.9413 23.1139 15.9832 21.6325 13.1732 18.8197C10.3613 16.005 8.88152 13.048 10.6191 11.3106C10.8949 11.0348 11.2353 10.6942 11.6404 10.2887C11.8039 10.1251 11.8786 10.0493 11.9683 9.95502C12.0906 9.82653 12.1911 9.71367 12.2715 9.6138C10.7177 7.44935 9.66143 6.09688 9.09201 5.53438C8.79793 5.24389 8.13945 5.29737 7.89771 5.53557C7.25298 6.17085 7.04105 6.38267 6.37217 7.06201C3.96642 9.46909 5.8081 15.8565 10.9707 21.0242C16.1318 26.1903 22.5182 28.0328 24.9422 25.6078C25.5523 25.0193 26.0495 24.5219 26.4321 24.1174C26.7086 23.8252 26.7581 23.2221 26.44 22.8916C25.9102 22.3412 24.6132 21.3299 22.3736 19.7216C22.2104 19.853 22.0097 20.0436 21.7001 20.3535ZM20.0038 2.66527H22.6705V13.3319H20.0038V2.66527ZM25.3372 2.66527H28.0038V13.3319H25.3372V2.66527Z" fill="#F7F9FC"/>
</svg>
