<svg width="73" height="25" viewBox="0 0 73 25" fill="none" xmlns="http://www.w3.org/2000/svg">
<path fill-rule="evenodd" clip-rule="evenodd" d="M12.5 25C19.4036 25 25 19.4036 25 12.5C25 5.59645 19.4036 0 12.5 0C5.59643 0 0 5.59645 0 12.5C0 19.4036 5.59643 25 12.5 25ZM16.3996 5.82303C16.5894 5.14878 15.9351 4.75008 15.3375 5.17582L6.9957 11.1185C6.34763 11.5802 6.44957 12.5 7.14882 12.5H9.34544V12.483H13.6266L10.1383 13.7138L8.60044 19.177C8.41063 19.8512 9.06488 20.2499 9.66251 19.8242L18.0043 13.8816C18.6524 13.4199 18.5504 12.5 17.8512 12.5H14.5201L16.3996 5.82303Z" fill="white"/>
<path d="M37.0625 4.5V19.5H34.2402V4.5H37.0625ZM38.9375 14.3242V14.1191C38.9375 13.3444 39.0482 12.6315 39.2695 11.9805C39.4909 11.3229 39.8132 10.7533 40.2363 10.2715C40.6595 9.78971 41.1803 9.41536 41.7988 9.14844C42.4173 8.875 43.127 8.73828 43.9277 8.73828C44.7285 8.73828 45.4414 8.875 46.0664 9.14844C46.6914 9.41536 47.2155 9.78971 47.6387 10.2715C48.0684 10.7533 48.3939 11.3229 48.6152 11.9805C48.8366 12.6315 48.9473 13.3444 48.9473 14.1191V14.3242C48.9473 15.0924 48.8366 15.8053 48.6152 16.4629C48.3939 17.1139 48.0684 17.6836 47.6387 18.1719C47.2155 18.6536 46.6947 19.028 46.0762 19.2949C45.4577 19.5618 44.748 19.6953 43.9473 19.6953C43.1465 19.6953 42.4336 19.5618 41.8086 19.2949C41.1901 19.028 40.666 18.6536 40.2363 18.1719C39.8132 17.6836 39.4909 17.1139 39.2695 16.4629C39.0482 15.8053 38.9375 15.0924 38.9375 14.3242ZM41.75 14.1191V14.3242C41.75 14.7669 41.7891 15.1803 41.8672 15.5645C41.9453 15.9486 42.069 16.2871 42.2383 16.5801C42.4141 16.8665 42.6419 17.0911 42.9219 17.2539C43.2018 17.4167 43.5436 17.498 43.9473 17.498C44.3379 17.498 44.6732 17.4167 44.9531 17.2539C45.2331 17.0911 45.4577 16.8665 45.627 16.5801C45.7962 16.2871 45.9199 15.9486 45.998 15.5645C46.0827 15.1803 46.125 14.7669 46.125 14.3242V14.1191C46.125 13.6895 46.0827 13.2858 45.998 12.9082C45.9199 12.5241 45.793 12.1855 45.6172 11.8926C45.4479 11.5931 45.2233 11.3587 44.9434 11.1895C44.6634 11.0202 44.3249 10.9355 43.9277 10.9355C43.5306 10.9355 43.1921 11.0202 42.9121 11.1895C42.6387 11.3587 42.4141 11.5931 42.2383 11.8926C42.069 12.1855 41.9453 12.5241 41.8672 12.9082C41.7891 13.2858 41.75 13.6895 41.75 14.1191ZM57.3652 8.93359H59.9141V19.1484C59.9141 20.112 59.6992 20.929 59.2695 21.5996C58.8464 22.2767 58.2539 22.7878 57.4922 23.1328C56.7305 23.4844 55.8451 23.6602 54.8359 23.6602C54.3932 23.6602 53.9245 23.6016 53.4297 23.4844C52.9414 23.3672 52.4727 23.1849 52.0234 22.9375C51.5807 22.6901 51.2096 22.3776 50.9102 22L52.1504 20.3398C52.4759 20.7174 52.8535 21.0104 53.2832 21.2188C53.7129 21.4336 54.1882 21.541 54.709 21.541C55.2168 21.541 55.6465 21.4466 55.998 21.2578C56.3496 21.0755 56.6198 20.8053 56.8086 20.4473C56.9974 20.0957 57.0918 19.6693 57.0918 19.168V11.375L57.3652 8.93359ZM50.2559 14.3438V14.1387C50.2559 13.3314 50.3535 12.599 50.5488 11.9414C50.7507 11.2773 51.0339 10.7077 51.3984 10.2324C51.7695 9.75716 52.2188 9.38932 52.7461 9.12891C53.2734 8.86849 53.8691 8.73828 54.5332 8.73828C55.2363 8.73828 55.8255 8.86849 56.3008 9.12891C56.776 9.38932 57.1667 9.76042 57.4727 10.2422C57.7786 10.7174 58.0163 11.2806 58.1855 11.9316C58.3613 12.5762 58.498 13.2826 58.5957 14.0508V14.5C58.498 15.2357 58.3516 15.9193 58.1562 16.5508C57.9609 17.1823 57.7038 17.7357 57.3848 18.2109C57.0658 18.6797 56.6686 19.0443 56.1934 19.3047C55.7246 19.5651 55.1647 19.6953 54.5137 19.6953C53.8626 19.6953 53.2734 19.5618 52.7461 19.2949C52.2253 19.028 51.7793 18.6536 51.4082 18.1719C51.0371 17.6901 50.7507 17.1237 50.5488 16.4727C50.3535 15.8216 50.2559 15.112 50.2559 14.3438ZM53.0684 14.1387V14.3438C53.0684 14.7799 53.1107 15.1868 53.1953 15.5645C53.2799 15.9421 53.4102 16.2773 53.5859 16.5703C53.7682 16.8568 53.9928 17.0814 54.2598 17.2441C54.5332 17.4004 54.8555 17.4785 55.2266 17.4785C55.7409 17.4785 56.1608 17.3711 56.4863 17.1562C56.8118 16.9349 57.056 16.6322 57.2188 16.248C57.3815 15.8639 57.4759 15.4212 57.502 14.9199V13.6406C57.4889 13.2305 57.4336 12.8626 57.3359 12.5371C57.2383 12.2051 57.1016 11.9219 56.9258 11.6875C56.75 11.4531 56.5221 11.2708 56.2422 11.1406C55.9622 11.0104 55.6302 10.9453 55.2461 10.9453C54.875 10.9453 54.5527 11.0299 54.2793 11.1992C54.0124 11.362 53.7878 11.5866 53.6055 11.873C53.4297 12.1595 53.2962 12.498 53.2051 12.8887C53.1139 13.2728 53.0684 13.6895 53.0684 14.1387ZM61.6523 14.3242V14.1191C61.6523 13.3444 61.763 12.6315 61.9844 11.9805C62.2057 11.3229 62.528 10.7533 62.9512 10.2715C63.3743 9.78971 63.8952 9.41536 64.5137 9.14844C65.1322 8.875 65.8418 8.73828 66.6426 8.73828C67.4434 8.73828 68.1562 8.875 68.7812 9.14844C69.4062 9.41536 69.9303 9.78971 70.3535 10.2715C70.7832 10.7533 71.1087 11.3229 71.3301 11.9805C71.5514 12.6315 71.6621 13.3444 71.6621 14.1191V14.3242C71.6621 15.0924 71.5514 15.8053 71.3301 16.4629C71.1087 17.1139 70.7832 17.6836 70.3535 18.1719C69.9303 18.6536 69.4095 19.028 68.791 19.2949C68.1725 19.5618 67.4629 19.6953 66.6621 19.6953C65.8613 19.6953 65.1484 19.5618 64.5234 19.2949C63.9049 19.028 63.3809 18.6536 62.9512 18.1719C62.528 17.6836 62.2057 17.1139 61.9844 16.4629C61.763 15.8053 61.6523 15.0924 61.6523 14.3242ZM64.4648 14.1191V14.3242C64.4648 14.7669 64.5039 15.1803 64.582 15.5645C64.6602 15.9486 64.7839 16.2871 64.9531 16.5801C65.1289 16.8665 65.3568 17.0911 65.6367 17.2539C65.9167 17.4167 66.2585 17.498 66.6621 17.498C67.0527 17.498 67.388 17.4167 67.668 17.2539C67.9479 17.0911 68.1725 16.8665 68.3418 16.5801C68.5111 16.2871 68.6348 15.9486 68.7129 15.5645C68.7975 15.1803 68.8398 14.7669 68.8398 14.3242V14.1191C68.8398 13.6895 68.7975 13.2858 68.7129 12.9082C68.6348 12.5241 68.5078 12.1855 68.332 11.8926C68.1628 11.5931 67.9382 11.3587 67.6582 11.1895C67.3783 11.0202 67.0397 10.9355 66.6426 10.9355C66.2454 10.9355 65.9069 11.0202 65.627 11.1895C65.3535 11.3587 65.1289 11.5931 64.9531 11.8926C64.7839 12.1855 64.6602 12.5241 64.582 12.9082C64.5039 13.2858 64.4648 13.6895 64.4648 14.1191Z" fill="white"/>
</svg>
