<svg width="30" height="27" viewBox="0 0 30 27" fill="none" xmlns="http://www.w3.org/2000/svg">
<path d="M0 3C0 2.20435 0.31607 1.44129 0.87868 0.87868C1.44129 0.31607 2.20435 0 3 0H27C27.7956 0 28.5587 0.31607 29.1213 0.87868C29.6839 1.44129 30 2.20435 30 3V19.5C30 20.2956 29.6839 21.0587 29.1213 21.6213C28.5587 22.1839 27.7956 22.5 27 22.5H20.121L16.0605 26.5605C15.7792 26.8417 15.3977 26.9997 15 26.9997C14.6023 26.9997 14.2208 26.8417 13.9395 26.5605L9.879 22.5H3C2.20435 22.5 1.44129 22.1839 0.87868 21.6213C0.31607 21.0587 0 20.2956 0 19.5V3ZM27 3H3V19.5H10.5C10.8978 19.5001 11.2793 19.6582 11.5605 19.9395L15 23.379L18.4395 19.9395C18.7207 19.6582 19.1022 19.5001 19.5 19.5H27V3ZM6 8.25C6 7.85218 6.15804 7.47064 6.43934 7.18934C6.72064 6.90804 7.10218 6.75 7.5 6.75H22.5C22.8978 6.75 23.2794 6.90804 23.5607 7.18934C23.842 7.47064 24 7.85218 24 8.25C24 8.64782 23.842 9.02936 23.5607 9.31066C23.2794 9.59196 22.8978 9.75 22.5 9.75H7.5C7.10218 9.75 6.72064 9.59196 6.43934 9.31066C6.15804 9.02936 6 8.64782 6 8.25ZM6 14.25C6 13.8522 6.15804 13.4706 6.43934 13.1893C6.72064 12.908 7.10218 12.75 7.5 12.75H16.5C16.8978 12.75 17.2794 12.908 17.5607 13.1893C17.842 13.4706 18 13.8522 18 14.25C18 14.6478 17.842 15.0294 17.5607 15.3107C17.2794 15.592 16.8978 15.75 16.5 15.75H7.5C7.10218 15.75 6.72064 15.592 6.43934 15.3107C6.15804 15.0294 6 14.6478 6 14.25Z" fill="#0F094F"/>
</svg>
