<svg width="20" height="21" viewBox="0 0 20 21" fill="none" xmlns="http://www.w3.org/2000/svg">
<path d="M9.90941 2.95414C9.09011 2.95414 8.30436 3.27961 7.72503 3.85894C7.14569 4.43828 6.82022 5.22402 6.82022 6.04332V10.3682C6.82022 11.1875 7.14569 11.9732 7.72503 12.5526C8.30436 13.1319 9.09011 13.4574 9.90941 13.4574C10.7287 13.4574 11.5145 13.1319 12.0938 12.5526C12.6731 11.9732 12.9986 11.1875 12.9986 10.3682V6.04332C12.9986 5.22402 12.6731 4.43828 12.0938 3.85894C11.5145 3.27961 10.7287 2.95414 9.90941 2.95414V2.95414ZM4.96671 9.75035C5.13057 9.75035 5.28772 9.81544 5.40359 9.93131C5.51946 10.0472 5.58455 10.2043 5.58455 10.3682C5.58455 11.5152 6.0402 12.6153 6.85127 13.4263C7.66234 14.2374 8.76239 14.693 9.90941 14.693C11.0564 14.693 12.1565 14.2374 12.9675 13.4263C13.7786 12.6153 14.2343 11.5152 14.2343 10.3682C14.2343 10.2043 14.2994 10.0472 14.4152 9.93131C14.5311 9.81544 14.6882 9.75035 14.8521 9.75035C15.016 9.75035 15.1731 9.81544 15.289 9.93131C15.4048 10.0472 15.4699 10.2043 15.4699 10.3682C15.4702 11.7361 14.9662 13.0562 14.0543 14.0759C13.1425 15.0956 11.8867 15.7434 10.5272 15.8954V17.1644C10.5272 17.3283 10.4622 17.4854 10.3463 17.6013C10.2304 17.7171 10.0733 17.7822 9.90941 17.7822C9.74555 17.7822 9.5884 17.7171 9.47253 17.6013C9.35667 17.4854 9.29157 17.3283 9.29157 17.1644V15.8954C7.93209 15.7434 6.67635 15.0956 5.76448 14.0759C4.85261 13.0562 4.34861 11.7361 4.34888 10.3682C4.34888 10.2043 4.41397 10.0472 4.52984 9.93131C4.6457 9.81544 4.80285 9.75035 4.96671 9.75035Z" fill="white"/>
</svg>
