<svg width="24" height="24" viewBox="0 0 24 24" fill="none" xmlns="http://www.w3.org/2000/svg">
<g clip-path="url(#clip0_0_4636)">
<path d="M14.8478 15.6134C14.7777 14.8397 14.8046 14.2997 14.8046 13.5926C15.155 13.4088 15.7829 12.2366 15.8889 11.2464C16.1645 11.2238 16.5989 10.955 16.7261 9.89375C16.7947 9.32399 16.5221 9.00335 16.356 8.90255C16.8043 7.55423 17.7355 3.38303 14.6337 2.95199C14.3145 2.39135 13.4971 2.10767 12.4349 2.10767C8.18495 2.18591 7.6723 5.31695 8.60398 8.90255C8.43838 9.00335 8.16574 9.32399 8.2339 9.89375C8.36158 10.955 8.79551 11.2238 9.07103 11.2464C9.17663 12.2361 9.82942 13.4088 10.1808 13.5926C10.1808 14.2997 10.2072 14.8397 10.1371 15.6134C9.29614 17.8742 3.62207 17.2397 3.35999 21.6H21.6C21.3384 17.2397 15.6888 17.8742 14.8478 15.6134Z" stroke="#0F094F" stroke-width="2" stroke-miterlimit="10" stroke-linecap="round"/>
</g>
<defs>
<clipPath id="clip0_0_4636">
<rect width="24" height="24" fill="white"/>
</clipPath>
</defs>
</svg>
