<svg width="24" height="24" viewBox="0 0 24 24" fill="none" xmlns="http://www.w3.org/2000/svg">
<path d="M0.999994 2H9.57999L11.067 8.69L9.20699 10.55C10.3001 12.2524 11.7473 13.6993 13.45 14.792L15.31 12.933L22 14.42V23H21C17.1504 23.006 13.3816 21.8959 10.15 19.804C7.76724 18.2619 5.73806 16.2328 4.19599 13.85C2.10414 10.6184 0.994003 6.84959 0.999994 3V2ZM3.02699 4C3.19518 7.11997 4.17742 10.1415 5.87599 12.764C7.26436 14.9089 9.09107 16.7356 11.236 18.124C13.8585 19.8226 16.88 20.8049 20 20.973V16.024L15.947 15.124L13.773 17.299L13.11 16.922C10.5927 15.4913 8.50865 13.4073 7.07799 10.89L6.70099 10.227L8.87599 8.053L7.97599 4H3.02699Z" fill="#0F094F"/>
</svg>
