<svg width="30" height="30" viewBox="0 0 30 30" fill="none" xmlns="http://www.w3.org/2000/svg">
<path d="M25.3125 21.5625H17.8125V23.4375H25.3125V21.5625Z" fill="#0F094F"/>
<path d="M25.3125 17.8125H17.8125V19.6875H25.3125V17.8125Z" fill="#0F094F"/>
<path d="M25.3125 14.0625H17.8125V15.9375H25.3125V14.0625Z" fill="#0F094F"/>
<path d="M28.125 6.5625H16.875V8.4375H27.1875V25.3125H2.8125V8.4375H13.125V6.5625H1.875C1.35719 6.5625 0.9375 6.9825 0.9375 7.5V26.25C0.9375 26.7675 1.35719 27.1875 1.875 27.1875H28.125C28.6428 27.1875 29.0625 26.7675 29.0625 26.25V7.5C29.0625 6.9825 28.6428 6.5625 28.125 6.5625Z" fill="#0F094F"/>
<path d="M12.1875 9.0625V2.8125H17.8125V9.0625C17.8125 9.58031 17.3928 10 16.875 10H13.125C12.6072 10 12.1875 9.58031 12.1875 9.0625ZM14.0625 8.125H15.9375V4.6875H14.0625V8.125Z" fill="#0F094F"/>
<path d="M15.9375 19.0625C15.9375 17.5372 15.0206 16.2241 13.7103 15.6387C13.9341 15.1587 14.0625 14.6259 14.0625 14.0625C14.0625 11.9947 12.3803 10.3125 10.3125 10.3125C8.24469 10.3125 6.5625 11.9947 6.5625 14.0625C6.5625 14.6259 6.69094 15.1587 6.91469 15.6387C5.60438 16.2241 4.6875 17.5372 4.6875 19.0625V23.4375H15.9375V19.0625ZM10.3125 12.1875C11.3466 12.1875 12.1875 13.0284 12.1875 14.0625C12.1875 15.0966 11.3466 15.9375 10.3125 15.9375C9.27844 15.9375 8.4375 15.0966 8.4375 14.0625C8.4375 13.0284 9.27844 12.1875 10.3125 12.1875ZM14.0625 21.5625H6.5625V19.0625C6.5625 18.0891 7.30844 17.2862 8.25906 17.1966C8.84938 17.5847 9.55438 17.8125 10.3125 17.8125C11.0706 17.8125 11.7756 17.5847 12.3656 17.1966C13.3166 17.2862 14.0625 18.0891 14.0625 19.0625V21.5625Z" fill="#0F094F"/>
</svg>
