<svg width="19" height="19" viewBox="0 0 19 19" fill="none" xmlns="http://www.w3.org/2000/svg">
<path d="M2.88433 3.39188C2.4794 3.39188 2.09106 3.55273 1.80473 3.83906C1.5184 4.12539 1.35754 4.51373 1.35754 4.91866V14.0794C1.35745 14.2799 1.39688 14.4785 1.47357 14.6639C1.55026 14.8492 1.66271 15.0176 1.80449 15.1594C1.94627 15.3013 2.11462 15.4138 2.2999 15.4906C2.48518 15.5673 2.68377 15.6068 2.88433 15.6068H16.1165C16.5214 15.6068 16.9097 15.446 17.1961 15.1597C17.4824 14.8733 17.6433 14.485 17.6433 14.0801V4.91934C17.6433 4.51441 17.4824 4.12607 17.1961 3.83974C16.9097 3.55341 16.5214 3.39255 16.1165 3.39255H2.88433V3.39188ZM9.85869 5.99827L12.0674 8.20702C12.1601 8.30305 12.2113 8.43163 12.2101 8.56507C12.2089 8.69851 12.1553 8.82613 12.0609 8.92044C11.9665 9.01476 11.8388 9.06822 11.7054 9.06932C11.5719 9.07042 11.4434 9.01906 11.3475 8.9263L10.008 7.5868V12.6401C10.008 12.7751 9.95435 12.9046 9.85891 13C9.76347 13.0954 9.63402 13.1491 9.49904 13.1491C9.36407 13.1491 9.23462 13.0954 9.13918 13C9.04373 12.9046 8.99012 12.7751 8.99012 12.6401V7.58816L7.65333 8.9263C7.60641 8.97493 7.55027 9.01373 7.48819 9.04043C7.42611 9.06713 7.35933 9.0812 7.29176 9.08182C7.22418 9.08244 7.15716 9.0696 7.09461 9.04404C7.03205 9.01848 6.97521 8.98071 6.9274 8.93295C6.87959 8.88519 6.84178 8.82839 6.81616 8.76585C6.79054 8.70332 6.77763 8.63631 6.77819 8.56874C6.77874 8.50116 6.79275 8.43437 6.81939 8.37227C6.84604 8.31016 6.88478 8.25399 6.93337 8.20702L9.13872 5.99895C9.18598 5.95165 9.2421 5.91414 9.30387 5.88854C9.36564 5.86294 9.43184 5.84977 9.4987 5.84977C9.56557 5.84977 9.63177 5.86294 9.69354 5.88854C9.75531 5.91414 9.81142 5.95165 9.85869 5.99895V5.99827Z" fill="white"/>
</svg>
