<svg width="25" height="24" viewBox="0 0 25 24" fill="none" xmlns="http://www.w3.org/2000/svg">
<path d="M10.4708 2.39999C6.05023 2.39999 2.4494 5.99119 2.4494 10.4C2.4494 14.8088 6.05023 18.4 10.4708 18.4C12.3932 18.4 14.1586 17.7192 15.5422 16.5891L20.3316 21.3656C20.4055 21.4424 20.494 21.5037 20.592 21.5459C20.69 21.5882 20.7954 21.6105 20.9021 21.6115C21.0088 21.6126 21.1147 21.5925 21.2135 21.5522C21.3123 21.512 21.4021 21.4525 21.4775 21.3772C21.553 21.302 21.6126 21.2125 21.653 21.1139C21.6933 21.0154 21.7135 20.9098 21.7125 20.8034C21.7114 20.6969 21.689 20.5918 21.6467 20.4941C21.6043 20.3964 21.5429 20.3081 21.4659 20.2344L16.6765 15.4578C17.8097 14.0779 18.4923 12.3172 18.4923 10.4C18.4923 5.99119 14.8915 2.39999 10.4708 2.39999ZM10.4708 3.99999C14.0244 3.99999 16.888 6.85589 16.888 10.4C16.888 13.9441 14.0244 16.8 10.4708 16.8C6.91725 16.8 4.05369 13.9441 4.05369 10.4C4.05369 6.85589 6.91725 3.99999 10.4708 3.99999Z" fill="#0F094F"/>
</svg>
