<svg width="27" height="27" viewBox="0 0 27 27" fill="none" xmlns="http://www.w3.org/2000/svg">
<mask id="path-1-inside-1_1_4460" fill="white">
<path d="M24.1277 14.2707C23.9319 14.0478 23.8239 13.7612 23.8239 13.4645C23.8239 13.1678 23.9319 12.8813 24.1277 12.6584L25.6912 10.8995C25.8634 10.7073 25.9704 10.4655 25.9967 10.2088C26.0231 9.95203 25.9674 9.69354 25.8377 9.4704L23.3948 5.2442C23.2665 5.02131 23.071 4.84464 22.8363 4.73936C22.6016 4.63408 22.3397 4.60558 22.0879 4.65791L19.7916 5.12205C19.4994 5.18243 19.1952 5.13377 18.9364 4.98525C18.6777 4.83674 18.4822 4.59864 18.3869 4.3159L17.6418 2.08066C17.5599 1.83805 17.4038 1.62734 17.1955 1.47829C16.9873 1.32925 16.7375 1.24941 16.4815 1.25007H11.5957C11.3293 1.23617 11.0657 1.30984 10.8452 1.45981C10.6246 1.60979 10.4592 1.82784 10.3742 2.08066L9.69022 4.3159C9.59495 4.59864 9.39949 4.83674 9.14071 4.98525C8.88194 5.13377 8.57775 5.18243 8.28556 5.12205L5.92818 4.65791C5.68944 4.62417 5.44607 4.66184 5.22871 4.76617C5.01135 4.87051 4.82973 5.03683 4.70673 5.2442L2.26384 9.4704C2.1309 9.69105 2.07112 9.94809 2.09306 10.2048C2.115 10.4614 2.21753 10.7046 2.38598 10.8995L3.93722 12.6584C4.13304 12.8813 4.24104 13.1678 4.24104 13.4645C4.24104 13.7612 4.13304 14.0478 3.93722 14.2707L2.38598 16.0296C2.21753 16.2245 2.115 16.4676 2.09306 16.7243C2.07112 16.981 2.1309 17.238 2.26384 17.4586L4.70673 21.6848C4.8351 21.9077 5.03056 22.0844 5.26524 22.1897C5.49992 22.295 5.76184 22.3235 6.01368 22.2711L8.30999 21.807C8.60218 21.7466 8.90637 21.7953 9.16514 21.9438C9.42392 22.0923 9.61938 22.3304 9.71465 22.6131L10.4597 24.8484C10.5447 25.1012 10.7101 25.3193 10.9307 25.4692C11.1512 25.6192 11.4148 25.6929 11.6812 25.679H16.567C16.823 25.6796 17.0728 25.5998 17.2811 25.4508C17.4893 25.3017 17.6454 25.091 17.7273 24.8484L18.4724 22.6131C18.5677 22.3304 18.7632 22.0923 19.0219 21.9438C19.2807 21.7953 19.5849 21.7466 19.8771 21.807L22.1734 22.2711C22.4252 22.3235 22.6872 22.295 22.9218 22.1897C23.1565 22.0844 23.352 21.9077 23.4803 21.6848L25.9232 17.4586C26.0529 17.2355 26.1086 16.977 26.0822 16.7203C26.0559 16.4635 25.9489 16.2217 25.7767 16.0296L24.1277 14.2707ZM22.3078 15.9074L23.2849 17.0067L21.7215 19.7183L20.2802 19.4252C19.4004 19.2453 18.4853 19.3948 17.7085 19.8451C16.9317 20.2954 16.3473 21.0153 16.0662 21.8681L15.602 23.2361H12.4751L12.0354 21.8436C11.7543 20.9909 11.1699 20.271 10.3931 19.8207C9.61624 19.3704 8.70112 19.2209 7.82141 19.4007L6.38011 19.6939L4.79223 16.9945L5.76939 15.8952C6.37028 15.2234 6.70249 14.3537 6.70249 13.4523C6.70249 12.551 6.37028 11.6812 5.76939 11.0094L4.79223 9.91012L6.35568 7.22294L7.79699 7.51609C8.6767 7.69591 9.59181 7.54648 10.3686 7.09615C11.1454 6.64583 11.7299 5.92596 12.011 5.0732L12.4751 3.69296H15.602L16.0662 5.08541C16.3473 5.93817 16.9317 6.65804 17.7085 7.10837C18.4853 7.55869 19.4004 7.70812 20.2802 7.5283L21.7215 7.23515L23.2849 9.94676L22.3078 11.0461C21.7136 11.7163 21.3855 12.581 21.3855 13.4767C21.3855 14.3724 21.7136 15.2371 22.3078 15.9074ZM14.0386 8.57874C13.0723 8.57874 12.1276 8.86529 11.3242 9.40215C10.5207 9.939 9.89449 10.7021 9.5247 11.5948C9.1549 12.4876 9.05815 13.4699 9.24667 14.4177C9.43519 15.3654 9.90051 16.236 10.5838 16.9193C11.2671 17.6026 12.1377 18.0679 13.0854 18.2564C14.0331 18.4449 15.0155 18.3482 15.9083 17.9784C16.801 17.6086 17.5641 16.9824 18.1009 16.1789C18.6378 15.3755 18.9243 14.4308 18.9243 13.4645C18.9243 12.1687 18.4096 10.926 17.4933 10.0098C16.5771 9.09349 15.3344 8.57874 14.0386 8.57874ZM14.0386 15.9074C13.5554 15.9074 13.0831 15.7641 12.6814 15.4957C12.2796 15.2273 11.9665 14.8458 11.7816 14.3994C11.5967 13.953 11.5484 13.4618 11.6426 12.9879C11.7369 12.5141 11.9695 12.0788 12.3112 11.7371C12.6528 11.3955 13.0881 11.1628 13.562 11.0686C14.0359 10.9743 14.527 11.0227 14.9734 11.2076C15.4198 11.3925 15.8013 11.7056 16.0698 12.1073C16.3382 12.5091 16.4815 12.9814 16.4815 13.4645C16.4815 14.1124 16.2241 14.7338 15.766 15.1919C15.3078 15.65 14.6865 15.9074 14.0386 15.9074Z"/>
</mask>
<path d="M24.1277 14.2707C23.9319 14.0478 23.8239 13.7612 23.8239 13.4645C23.8239 13.1678 23.9319 12.8813 24.1277 12.6584L25.6912 10.8995C25.8634 10.7073 25.9704 10.4655 25.9967 10.2088C26.0231 9.95203 25.9674 9.69354 25.8377 9.4704L23.3948 5.2442C23.2665 5.02131 23.071 4.84464 22.8363 4.73936C22.6016 4.63408 22.3397 4.60558 22.0879 4.65791L19.7916 5.12205C19.4994 5.18243 19.1952 5.13377 18.9364 4.98525C18.6777 4.83674 18.4822 4.59864 18.3869 4.3159L17.6418 2.08066C17.5599 1.83805 17.4038 1.62734 17.1955 1.47829C16.9873 1.32925 16.7375 1.24941 16.4815 1.25007H11.5957C11.3293 1.23617 11.0657 1.30984 10.8452 1.45981C10.6246 1.60979 10.4592 1.82784 10.3742 2.08066L9.69022 4.3159C9.59495 4.59864 9.39949 4.83674 9.14071 4.98525C8.88194 5.13377 8.57775 5.18243 8.28556 5.12205L5.92818 4.65791C5.68944 4.62417 5.44607 4.66184 5.22871 4.76617C5.01135 4.87051 4.82973 5.03683 4.70673 5.2442L2.26384 9.4704C2.1309 9.69105 2.07112 9.94809 2.09306 10.2048C2.115 10.4614 2.21753 10.7046 2.38598 10.8995L3.93722 12.6584C4.13304 12.8813 4.24104 13.1678 4.24104 13.4645C4.24104 13.7612 4.13304 14.0478 3.93722 14.2707L2.38598 16.0296C2.21753 16.2245 2.115 16.4676 2.09306 16.7243C2.07112 16.981 2.1309 17.238 2.26384 17.4586L4.70673 21.6848C4.8351 21.9077 5.03056 22.0844 5.26524 22.1897C5.49992 22.295 5.76184 22.3235 6.01368 22.2711L8.30999 21.807C8.60218 21.7466 8.90637 21.7953 9.16514 21.9438C9.42392 22.0923 9.61938 22.3304 9.71465 22.6131L10.4597 24.8484C10.5447 25.1012 10.7101 25.3193 10.9307 25.4692C11.1512 25.6192 11.4148 25.6929 11.6812 25.679H16.567C16.823 25.6796 17.0728 25.5998 17.2811 25.4508C17.4893 25.3017 17.6454 25.091 17.7273 24.8484L18.4724 22.6131C18.5677 22.3304 18.7632 22.0923 19.0219 21.9438C19.2807 21.7953 19.5849 21.7466 19.8771 21.807L22.1734 22.2711C22.4252 22.3235 22.6872 22.295 22.9218 22.1897C23.1565 22.0844 23.352 21.9077 23.4803 21.6848L25.9232 17.4586C26.0529 17.2355 26.1086 16.977 26.0822 16.7203C26.0559 16.4635 25.9489 16.2217 25.7767 16.0296L24.1277 14.2707ZM22.3078 15.9074L23.2849 17.0067L21.7215 19.7183L20.2802 19.4252C19.4004 19.2453 18.4853 19.3948 17.7085 19.8451C16.9317 20.2954 16.3473 21.0153 16.0662 21.8681L15.602 23.2361H12.4751L12.0354 21.8436C11.7543 20.9909 11.1699 20.271 10.3931 19.8207C9.61624 19.3704 8.70112 19.2209 7.82141 19.4007L6.38011 19.6939L4.79223 16.9945L5.76939 15.8952C6.37028 15.2234 6.70249 14.3537 6.70249 13.4523C6.70249 12.551 6.37028 11.6812 5.76939 11.0094L4.79223 9.91012L6.35568 7.22294L7.79699 7.51609C8.6767 7.69591 9.59181 7.54648 10.3686 7.09615C11.1454 6.64583 11.7299 5.92596 12.011 5.0732L12.4751 3.69296H15.602L16.0662 5.08541C16.3473 5.93817 16.9317 6.65804 17.7085 7.10837C18.4853 7.55869 19.4004 7.70812 20.2802 7.5283L21.7215 7.23515L23.2849 9.94676L22.3078 11.0461C21.7136 11.7163 21.3855 12.581 21.3855 13.4767C21.3855 14.3724 21.7136 15.2371 22.3078 15.9074ZM14.0386 8.57874C13.0723 8.57874 12.1276 8.86529 11.3242 9.40215C10.5207 9.939 9.89449 10.7021 9.5247 11.5948C9.1549 12.4876 9.05815 13.4699 9.24667 14.4177C9.43519 15.3654 9.90051 16.236 10.5838 16.9193C11.2671 17.6026 12.1377 18.0679 13.0854 18.2564C14.0331 18.4449 15.0155 18.3482 15.9083 17.9784C16.801 17.6086 17.5641 16.9824 18.1009 16.1789C18.6378 15.3755 18.9243 14.4308 18.9243 13.4645C18.9243 12.1687 18.4096 10.926 17.4933 10.0098C16.5771 9.09349 15.3344 8.57874 14.0386 8.57874ZM14.0386 15.9074C13.5554 15.9074 13.0831 15.7641 12.6814 15.4957C12.2796 15.2273 11.9665 14.8458 11.7816 14.3994C11.5967 13.953 11.5484 13.4618 11.6426 12.9879C11.7369 12.5141 11.9695 12.0788 12.3112 11.7371C12.6528 11.3955 13.0881 11.1628 13.562 11.0686C14.0359 10.9743 14.527 11.0227 14.9734 11.2076C15.4198 11.3925 15.8013 11.7056 16.0698 12.1073C16.3382 12.5091 16.4815 12.9814 16.4815 13.4645C16.4815 14.1124 16.2241 14.7338 15.766 15.1919C15.3078 15.65 14.6865 15.9074 14.0386 15.9074Z" fill="white" stroke="#08033D" stroke-width="0.6" mask="url(#path-1-inside-1_1_4460)"/>
</svg>
