<svg width="17" height="17" viewBox="0 0 17 17" fill="none" xmlns="http://www.w3.org/2000/svg">
<path d="M9.53133 15.2333H7.26593C7.14007 15.2333 7.02852 15.1932 6.93127 15.1131C6.83401 15.033 6.77395 14.9301 6.75106 14.8042L6.47647 13.0708C6.25908 12.9907 6.03025 12.8821 5.78998 12.7448C5.54971 12.6075 5.33805 12.4644 5.15498 12.3157L3.55891 13.0537C3.43305 13.1109 3.30719 13.1195 3.18134 13.0794C3.05548 13.0394 2.95823 12.9564 2.88958 12.8306L1.75688 10.8226C1.68823 10.7082 1.67107 10.588 1.70539 10.4622C1.73972 10.3363 1.80837 10.2334 1.91134 10.1533L3.38728 9.07205C3.3644 8.96908 3.3501 8.85181 3.34438 8.72023C3.33866 8.58865 3.3358 8.47138 3.3358 8.36841C3.3358 8.26543 3.33866 8.14816 3.34438 8.01658C3.3501 7.88501 3.3644 7.76773 3.38728 7.66476L1.91134 6.58354C1.80837 6.50345 1.73972 6.40048 1.70539 6.27463C1.67107 6.14877 1.68823 6.02864 1.75688 5.91422L2.88958 3.90625C2.95823 3.7804 3.05548 3.69744 3.18134 3.6574C3.30719 3.61735 3.43305 3.62594 3.55891 3.68314L5.15498 4.42112C5.33805 4.27238 5.54971 4.12936 5.78998 3.99206C6.03025 3.85476 6.25908 3.75179 6.47647 3.68314L6.75106 1.9326C6.77395 1.80675 6.83401 1.70378 6.93127 1.62369C7.02852 1.5436 7.14007 1.50355 7.26593 1.50355H9.53133C9.65718 1.50355 9.76874 1.5436 9.86599 1.62369C9.96324 1.70378 10.0233 1.80675 10.0462 1.9326L10.3208 3.66598C10.5382 3.74607 10.7699 3.8519 11.0159 3.98348C11.2618 4.11506 11.4707 4.26094 11.6423 4.42112L13.2384 3.68314C13.3642 3.62594 13.4901 3.61735 13.6159 3.6574C13.7418 3.69744 13.839 3.7804 13.9077 3.90625L15.0404 5.89706C15.109 6.01147 15.129 6.13447 15.1004 6.26605C15.0718 6.39762 15.0003 6.50345 14.8859 6.58354L13.41 7.63044C13.4329 7.74485 13.4472 7.86784 13.4529 7.99942C13.4586 8.131 13.4615 8.25399 13.4615 8.36841C13.4615 8.48282 13.4586 8.60296 13.4529 8.72881C13.4472 8.85467 13.4329 8.9748 13.41 9.08922L14.8859 10.1533C14.9889 10.2334 15.0575 10.3363 15.0919 10.4622C15.1262 10.588 15.109 10.7082 15.0404 10.8226L13.9077 12.8306C13.839 12.9564 13.7418 13.0394 13.6159 13.0794C13.4901 13.1195 13.3642 13.1109 13.2384 13.0537L11.6423 12.3157C11.4592 12.4644 11.2504 12.6103 11.0159 12.7533C10.7813 12.8964 10.5496 13.0022 10.3208 13.0708L10.0462 14.8042C10.0233 14.9301 9.96324 15.033 9.86599 15.1131C9.76874 15.1932 9.65718 15.2333 9.53133 15.2333ZM8.39863 10.5995C9.01647 10.5995 9.54277 10.3821 9.97755 9.94732C10.4123 9.51255 10.6297 8.98624 10.6297 8.36841C10.6297 7.75057 10.4123 7.22426 9.97755 6.78949C9.54277 6.35472 9.01647 6.13733 8.39863 6.13733C7.78079 6.13733 7.25449 6.35472 6.81971 6.78949C6.38494 7.22426 6.16755 7.75057 6.16755 8.36841C6.16755 8.98624 6.38494 9.51255 6.81971 9.94732C7.25449 10.3821 7.78079 10.5995 8.39863 10.5995Z" fill="white"/>
</svg>
