<svg width="15" height="12" viewBox="0 0 15 12" fill="none" xmlns="http://www.w3.org/2000/svg">
<path d="M1.48199 11.1353C1.20747 11.1353 0.967254 11.0349 0.761358 10.8341C0.555463 10.6334 0.452515 10.3991 0.452515 10.1314V1.43016C0.452515 1.16243 0.555463 0.928163 0.761358 0.727366C0.967254 0.526569 1.20747 0.42617 1.48199 0.42617H10.4041C10.6787 0.42617 10.9189 0.526569 11.1248 0.727366C11.3307 0.928163 11.4336 1.16243 11.4336 1.43016V5.02777L14.1789 2.35047V9.21104L11.4336 6.53375V10.1314C11.4336 10.3991 11.3307 10.6334 11.1248 10.8341C10.9189 11.0349 10.6787 11.1353 10.4041 11.1353H1.48199Z" fill="white"/>
</svg>
