<svg width="28" height="38" viewBox="0 0 28 38" fill="none" xmlns="http://www.w3.org/2000/svg">
<path d="M25.9636 14.8364H24.7273V9.89091C24.7273 7.85091 23.0582 6.18182 21.0182 6.18182H19.5593H5.168H3.70909C1.66909 6.18182 0 7.85091 0 9.89091V27.2C0 29.24 1.66909 30.9091 3.70909 30.9091H5.168H19.5593H21.0182C23.0582 30.9091 24.7273 29.24 24.7273 27.2V22.2545H25.9636C26.647 22.2545 27.2 21.7009 27.2 21.0182V16.0727C27.2 15.39 26.647 14.8364 25.9636 14.8364ZM17.9644 19.5964L8.07345 25.7782C7.87564 25.9018 7.64073 25.9636 7.41818 25.9636C7.208 25.9636 7.01018 25.9142 6.82473 25.8029C6.42909 25.5927 6.18182 25.1724 6.18182 24.7273V12.3636C6.18182 11.9185 6.42909 11.4982 6.82473 11.288C7.208 11.0655 7.69018 11.0778 8.07345 11.3127L17.9644 17.4945C18.3229 17.7171 18.5455 18.1251 18.5455 18.5455C18.5455 18.9658 18.3229 19.3738 17.9644 19.5964Z" fill="#0F094F"/>
<path d="M16.5453 3.70909H19.0675L18.5235 0.989091C18.4123 0.420364 17.9053 0 17.3119 0H7.42098C6.82753 0 6.32062 0.420364 6.20934 0.989091L5.66534 3.70909H8.18753H16.5453Z" fill="#C1C1C1"/>
<path d="M8.18753 33.3818H5.66534L6.20934 36.1018C6.32062 36.6705 6.82753 37.0909 7.42098 37.0909H17.3119C17.9053 37.0909 18.4123 36.6705 18.5235 36.1018L19.0675 33.3818H16.5453H8.18753Z" fill="#C1C1C1"/>
<path d="M8.65411 22.5018L14.9719 18.5454L8.65411 14.5891V22.5018Z" fill="#0F094F"/>
</svg>
