<svg width="137" height="137" viewBox="0 0 137 137" fill="none" xmlns="http://www.w3.org/2000/svg">
<circle cx="68.5" cy="68.5" r="68" fill="#1A666A" stroke="#0F094F"/>
<path d="M81.1795 43.4509C78.595 40.7015 74.9851 39.1875 71.0008 39.1875C66.9951 39.1875 63.3733 40.6924 60.8008 43.4247C58.2003 46.1872 56.9333 49.9415 57.2308 53.9955C57.8204 61.9937 63.9976 68.5 71.0008 68.5C78.004 68.5 84.1704 61.995 84.7694 53.9982C85.0709 49.9808 83.7959 46.2343 81.1795 43.4509ZM94.3758 97.8125H47.6258C47.0138 97.8203 46.4079 97.6937 45.8519 97.4417C45.2959 97.1898 44.8039 96.8189 44.4117 96.356C43.5484 95.3393 43.2004 93.9508 43.4581 92.5467C44.579 86.4199 48.0773 81.2732 53.5758 77.6602C58.4606 74.4528 64.6483 72.6875 71.0008 72.6875C77.3532 72.6875 83.5409 74.4541 88.4258 77.6602C93.9242 81.2719 97.4225 86.4186 98.5434 92.5454C98.8011 93.9495 98.4531 95.3379 97.5898 96.3547C97.1978 96.8178 96.7058 97.189 96.1498 97.4411C95.5938 97.6933 94.9878 97.8202 94.3758 97.8125Z" fill="#0F094F"/>
</svg>
