<svg width="32" height="32" viewBox="0 0 32 32" fill="none" xmlns="http://www.w3.org/2000/svg">
<path d="M1.33335 2.66666H12.7733L14.756 11.5867L12.276 14.0667C13.7335 16.3365 15.6631 18.2657 17.9333 19.7227L20.4133 17.244L29.3333 19.2267V30.6667H28C22.8672 30.6746 17.8422 29.1945 13.5333 26.4053C10.3563 24.3492 7.65076 21.6437 5.59468 18.4667C2.80554 14.1578 1.32536 9.13277 1.33335 3.99999V2.66666ZM4.03601 5.33332C4.26026 9.49329 5.56992 13.522 7.83468 17.0187C9.68584 19.8785 12.1215 22.3142 14.9813 24.1653C18.478 26.4301 22.5067 27.7398 26.6667 27.964V21.3653L21.2627 20.1653L18.364 23.0653L17.48 22.5627C14.1236 20.6551 11.3449 17.8764 9.43735 14.52L8.93468 13.636L11.8347 10.7373L10.6347 5.33332H4.03601Z" fill="#0F094F"/>
</svg>
