<svg width="27" height="25" viewBox="0 0 27 25" fill="none" xmlns="http://www.w3.org/2000/svg">
<path d="M26.586 2.20916V18.6324C26.586 19.1769 26.3753 19.699 26.0002 20.084C25.6251 20.469 25.1164 20.6853 24.586 20.6853H7.89847L3.88847 24.292C3.88364 24.2974 3.87819 24.3021 3.87222 24.3061C3.5131 24.6193 3.0572 24.7912 2.58597 24.7911C2.29257 24.7906 2.00284 24.724 1.73722 24.5961C1.39173 24.4327 1.09942 24.1705 0.89525 23.8411C0.691085 23.5116 0.583711 23.1287 0.585972 22.7382V2.20916C0.585972 1.66469 0.796686 1.14253 1.17176 0.757532C1.54683 0.372538 2.05554 0.15625 2.58597 0.15625H24.586C25.1164 0.15625 25.6251 0.372538 26.0002 0.757532C26.3753 1.14253 26.586 1.66469 26.586 2.20916Z" fill="white"/>
<path fill-rule="evenodd" clip-rule="evenodd" d="M18.2174 6.87328L17.0389 5.66359L12.9141 9.89749L8.78927 5.66359L7.61076 6.87328L11.7356 11.1072L7.61076 15.3411L8.78927 16.5508L12.9141 12.3169L17.0389 16.5508L18.2174 15.3411L14.0926 11.1072L18.2174 6.87328Z" fill="#0F094F"/>
</svg>
