<svg width="32" height="32" viewBox="0 0 32 32" fill="none" xmlns="http://www.w3.org/2000/svg">
<path d="M16.0026 25.3359C15.2954 25.3359 14.6171 25.6169 14.117 26.117C13.6169 26.6171 13.3359 27.2954 13.3359 28.0026C13.3359 28.7098 13.6169 29.3881 14.117 29.8882C14.6171 30.3883 15.2954 30.6693 16.0026 30.6693C16.7098 30.6693 17.3881 30.3883 17.8882 29.8882C18.3883 29.3881 18.6693 28.7098 18.6693 28.0026C18.6693 27.2954 18.3883 26.6171 17.8882 26.117C17.3881 25.6169 16.7098 25.3359 16.0026 25.3359ZM8.0026 1.33594C7.29536 1.33594 6.61708 1.61689 6.11699 2.11699C5.61689 2.61708 5.33594 3.29536 5.33594 4.0026C5.33594 4.70985 5.61689 5.38813 6.11699 5.88822C6.61708 6.38832 7.29536 6.66927 8.0026 6.66927C8.70985 6.66927 9.38813 6.38832 9.88822 5.88822C10.3883 5.38813 10.6693 4.70985 10.6693 4.0026C10.6693 3.29536 10.3883 2.61708 9.88822 2.11699C9.38813 1.61689 8.70985 1.33594 8.0026 1.33594ZM8.0026 9.33594C7.29536 9.33594 6.61708 9.61689 6.11699 10.117C5.61689 10.6171 5.33594 11.2954 5.33594 12.0026C5.33594 12.7098 5.61689 13.3881 6.11699 13.8882C6.61708 14.3883 7.29536 14.6693 8.0026 14.6693C8.70985 14.6693 9.38813 14.3883 9.88822 13.8882C10.3883 13.3881 10.6693 12.7098 10.6693 12.0026C10.6693 11.2954 10.3883 10.6171 9.88822 10.117C9.38813 9.61689 8.70985 9.33594 8.0026 9.33594ZM8.0026 17.3359C7.29536 17.3359 6.61708 17.6169 6.11699 18.117C5.61689 18.6171 5.33594 19.2954 5.33594 20.0026C5.33594 20.7098 5.61689 21.3881 6.11699 21.8882C6.61708 22.3883 7.29536 22.6693 8.0026 22.6693C8.70985 22.6693 9.38813 22.3883 9.88822 21.8882C10.3883 21.3881 10.6693 20.7098 10.6693 20.0026C10.6693 19.2954 10.3883 18.6171 9.88822 18.117C9.38813 17.6169 8.70985 17.3359 8.0026 17.3359ZM24.0026 6.66927C24.7098 6.66927 25.3881 6.38832 25.8882 5.88822C26.3883 5.38813 26.6693 4.70985 26.6693 4.0026C26.6693 3.29536 26.3883 2.61708 25.8882 2.11699C25.3881 1.61689 24.7098 1.33594 24.0026 1.33594C23.2954 1.33594 22.6171 1.61689 22.117 2.11699C21.6169 2.61708 21.3359 3.29536 21.3359 4.0026C21.3359 4.70985 21.6169 5.38813 22.117 5.88822C22.6171 6.38832 23.2954 6.66927 24.0026 6.66927ZM16.0026 17.3359C15.2954 17.3359 14.6171 17.6169 14.117 18.117C13.6169 18.6171 13.3359 19.2954 13.3359 20.0026C13.3359 20.7098 13.6169 21.3881 14.117 21.8882C14.6171 22.3883 15.2954 22.6693 16.0026 22.6693C16.7098 22.6693 17.3881 22.3883 17.8882 21.8882C18.3883 21.3881 18.6693 20.7098 18.6693 20.0026C18.6693 19.2954 18.3883 18.6171 17.8882 18.117C17.3881 17.6169 16.7098 17.3359 16.0026 17.3359ZM24.0026 17.3359C23.2954 17.3359 22.6171 17.6169 22.117 18.117C21.6169 18.6171 21.3359 19.2954 21.3359 20.0026C21.3359 20.7098 21.6169 21.3881 22.117 21.8882C22.6171 22.3883 23.2954 22.6693 24.0026 22.6693C24.7098 22.6693 25.3881 22.3883 25.8882 21.8882C26.3883 21.3881 26.6693 20.7098 26.6693 20.0026C26.6693 19.2954 26.3883 18.6171 25.8882 18.117C25.3881 17.6169 24.7098 17.3359 24.0026 17.3359ZM24.0026 9.33594C23.2954 9.33594 22.6171 9.61689 22.117 10.117C21.6169 10.6171 21.3359 11.2954 21.3359 12.0026C21.3359 12.7098 21.6169 13.3881 22.117 13.8882C22.6171 14.3883 23.2954 14.6693 24.0026 14.6693C24.7098 14.6693 25.3881 14.3883 25.8882 13.8882C26.3883 13.3881 26.6693 12.7098 26.6693 12.0026C26.6693 11.2954 26.3883 10.6171 25.8882 10.117C25.3881 9.61689 24.7098 9.33594 24.0026 9.33594ZM16.0026 9.33594C15.2954 9.33594 14.6171 9.61689 14.117 10.117C13.6169 10.6171 13.3359 11.2954 13.3359 12.0026C13.3359 12.7098 13.6169 13.3881 14.117 13.8882C14.6171 14.3883 15.2954 14.6693 16.0026 14.6693C16.7098 14.6693 17.3881 14.3883 17.8882 13.8882C18.3883 13.3881 18.6693 12.7098 18.6693 12.0026C18.6693 11.2954 18.3883 10.6171 17.8882 10.117C17.3881 9.61689 16.7098 9.33594 16.0026 9.33594ZM16.0026 1.33594C15.2954 1.33594 14.6171 1.61689 14.117 2.11699C13.6169 2.61708 13.3359 3.29536 13.3359 4.0026C13.3359 4.70985 13.6169 5.38813 14.117 5.88822C14.6171 6.38832 15.2954 6.66927 16.0026 6.66927C16.7098 6.66927 17.3881 6.38832 17.8882 5.88822C18.3883 5.38813 18.6693 4.70985 18.6693 4.0026C18.6693 3.29536 18.3883 2.61708 17.8882 2.11699C17.3881 1.61689 16.7098 1.33594 16.0026 1.33594Z" fill="white"/>
</svg>
