<svg width="32" height="32" viewBox="0 0 32 32" fill="none" xmlns="http://www.w3.org/2000/svg">
<g clip-path="url(#clip0_88_1274)">
<path fill-rule="evenodd" clip-rule="evenodd" d="M9.8906 3.9974C9.52354 4.83845 9.33468 5.74641 9.33594 6.66407C9.33594 7.37131 9.61689 8.04959 10.117 8.54969C10.6171 9.04978 11.2954 9.33073 12.0026 9.33073H20.0026C20.7098 9.33073 21.3881 9.04978 21.8882 8.54969C22.3883 8.04959 22.6693 7.37131 22.6693 6.66407C22.6693 5.71607 22.4719 4.8134 22.1146 3.9974H24.0026C24.7098 3.9974 25.3881 4.27835 25.8882 4.77845C26.3883 5.27855 26.6693 5.95682 26.6693 6.66407V26.6641C26.6693 27.3713 26.3883 28.0496 25.8882 28.5497C25.3881 29.0498 24.7098 29.3307 24.0026 29.3307H8.0026C7.29536 29.3307 6.61708 29.0498 6.11699 28.5497C5.61689 28.0496 5.33594 27.3713 5.33594 26.6641V6.66407C5.33594 5.95682 5.61689 5.27855 6.11699 4.77845C6.61708 4.27835 7.29536 3.9974 8.0026 3.9974H9.8906ZM16.0026 18.6641H12.0026C11.649 18.6641 11.3098 18.8045 11.0598 19.0546C10.8097 19.3046 10.6693 19.6438 10.6693 19.9974C10.6693 20.351 10.8097 20.6902 11.0598 20.9402C11.3098 21.1903 11.649 21.3307 12.0026 21.3307H16.0026C16.3562 21.3307 16.6954 21.1903 16.9454 20.9402C17.1955 20.6902 17.3359 20.351 17.3359 19.9974C17.3359 19.6438 17.1955 19.3046 16.9454 19.0546C16.6954 18.8045 16.3562 18.6641 16.0026 18.6641ZM20.0026 13.3307H12.0026C11.6628 13.3311 11.3359 13.4612 11.0888 13.6945C10.8417 13.9278 10.693 14.2467 10.673 14.5859C10.6531 14.9252 10.7635 15.2592 10.9816 15.5198C11.1997 15.7804 11.5091 15.9479 11.8466 15.9881L12.0026 15.9974H20.0026C20.3562 15.9974 20.6954 15.8569 20.9454 15.6069C21.1955 15.3568 21.3359 15.0177 21.3359 14.6641C21.3359 14.3104 21.1955 13.9713 20.9454 13.7213C20.6954 13.4712 20.3562 13.3307 20.0026 13.3307ZM16.0026 2.66407C16.5655 2.66324 17.1222 2.78162 17.6361 3.01144C18.1499 3.24125 18.6093 3.57727 18.9839 3.9974C19.5546 4.63473 19.9226 5.45473 19.9906 6.36007L20.0026 6.66407H12.0026C12.0026 5.6974 12.3453 4.81073 12.9159 4.12007L13.0213 3.9974C13.7546 3.17873 14.8186 2.66407 16.0026 2.66407Z" fill="#0F094F"/>
</g>
<defs>
<clipPath id="clip0_88_1274">
<rect width="32" height="32" fill="white"/>
</clipPath>
</defs>
</svg>
