<svg width="32" height="32" viewBox="0 0 32 32" fill="none" xmlns="http://www.w3.org/2000/svg">
<g clip-path="url(#clip0_64_594)">
<path d="M30.4 0L22 8.4V6C22 2.6 19.4 0 16 0C12.6 0 10 2.6 10 6V14C10 15.8 10.8 17.4 12 18.4L10.4 20C9 18.8 8 17 8 15V10C6.8 10 6 10.8 6 12V15C6 17.6 7.2 19.8 9 21.4L0 30.6V32H1.4L32 1.2V0H30.4ZM25 10.2L24 11.2V15C24 18.8 20.4 22 16.4 22H15.6C15 22 14.4 21.8 13.8 21.8L12 23.2C12.6 23.4 13.2 23.6 14 23.8V28C8 28 9 32 9 32H23C23 32 24 28 18 28V23.8C22.4 23 26 19.4 26 15V12C26 11.2 25.6 10.6 25 10.2Z" fill="white"/>
<path d="M21.9984 14.0031V13.2031L15.3984 20.0031H15.9984C19.3984 20.0031 21.9984 17.2031 21.9984 14.0031Z" fill="white"/>
</g>
<defs>
<clipPath id="clip0_64_594">
<rect width="32" height="32" fill="white"/>
</clipPath>
</defs>
</svg>
