<svg width="49" height="43" viewBox="0 0 49 43" fill="none" xmlns="http://www.w3.org/2000/svg">
<g clip-path="url(#clip0_0_4501)">
<path fill-rule="evenodd" clip-rule="evenodd" d="M16.9203 2.6875H12.7859C12.2377 2.6875 11.7119 2.87862 11.3242 3.21883C10.9365 3.55903 10.7188 4.02044 10.7188 4.50156V8.12969C10.7188 8.61081 10.9365 9.07222 11.3242 9.41242C11.7119 9.75263 12.2377 9.94375 12.7859 9.94375H16.9203C17.4686 9.94375 17.9944 9.75263 18.382 9.41242C18.7697 9.07222 18.9875 8.61081 18.9875 8.12969V4.50156C18.9875 4.02044 18.7697 3.55903 18.382 3.21883C17.9944 2.87862 17.4686 2.6875 16.9203 2.6875ZM27.2562 2.6875H23.1219C22.5736 2.6875 22.0478 2.87862 21.6602 3.21883C21.2725 3.55903 21.0547 4.02044 21.0547 4.50156V8.12969C21.0547 8.61081 21.2725 9.07222 21.6602 9.41242C22.0478 9.75263 22.5736 9.94375 23.1219 9.94375H27.2562C27.8045 9.94375 28.3303 9.75263 28.718 9.41242C29.1056 9.07222 29.3234 8.61081 29.3234 8.12969V4.50156C29.3234 4.02044 29.1056 3.55903 28.718 3.21883C28.3303 2.87862 27.8045 2.6875 27.2562 2.6875ZM37.5922 2.6875H33.4578C32.9096 2.6875 32.3838 2.87862 31.9961 3.21883C31.6084 3.55903 31.3906 4.02044 31.3906 4.50156V8.12969C31.3906 8.61081 31.6084 9.07222 31.9961 9.41242C32.3838 9.75263 32.9096 9.94375 33.4578 9.94375H37.5922C38.1404 9.94375 38.6662 9.75263 39.0539 9.41242C39.4416 9.07222 39.6594 8.61081 39.6594 8.12969V4.50156C39.6594 4.02044 39.4416 3.55903 39.0539 3.21883C38.6662 2.87862 38.1404 2.6875 37.5922 2.6875ZM16.9203 11.7578H12.7859C12.2377 11.7578 11.7119 11.9489 11.3242 12.2891C10.9365 12.6293 10.7188 13.0908 10.7188 13.5719V17.2C10.7188 17.6811 10.9365 18.1425 11.3242 18.4827C11.7119 18.8229 12.2377 19.0141 12.7859 19.0141H16.9203C17.4686 19.0141 17.9944 18.8229 18.382 18.4827C18.7697 18.1425 18.9875 17.6811 18.9875 17.2V13.5719C18.9875 13.0908 18.7697 12.6293 18.382 12.2891C17.9944 11.9489 17.4686 11.7578 16.9203 11.7578ZM27.2562 11.7578H23.1219C22.5736 11.7578 22.0478 11.9489 21.6602 12.2891C21.2725 12.6293 21.0547 13.0908 21.0547 13.5719V17.2C21.0547 17.6811 21.2725 18.1425 21.6602 18.4827C22.0478 18.8229 22.5736 19.0141 23.1219 19.0141H27.2562C27.8045 19.0141 28.3303 18.8229 28.718 18.4827C29.1056 18.1425 29.3234 17.6811 29.3234 17.2V13.5719C29.3234 13.0908 29.1056 12.6293 28.718 12.2891C28.3303 11.9489 27.8045 11.7578 27.2562 11.7578ZM37.5922 11.7578H33.4578C32.9096 11.7578 32.3838 11.9489 31.9961 12.2891C31.6084 12.6293 31.3906 13.0908 31.3906 13.5719V17.2C31.3906 17.6811 31.6084 18.1425 31.9961 18.4827C32.3838 18.8229 32.9096 19.0141 33.4578 19.0141H37.5922C38.1404 19.0141 38.6662 18.8229 39.0539 18.4827C39.4416 18.1425 39.6594 17.6811 39.6594 17.2V13.5719C39.6594 13.0908 39.4416 12.6293 39.0539 12.2891C38.6662 11.9489 38.1404 11.7578 37.5922 11.7578ZM16.9203 20.8281H12.7859C12.2377 20.8281 11.7119 21.0192 11.3242 21.3595C10.9365 21.6997 10.7188 22.1611 10.7188 22.6422V26.2703C10.7188 26.7514 10.9365 27.2128 11.3242 27.553C11.7119 27.8932 12.2377 28.0844 12.7859 28.0844H16.9203C17.4686 28.0844 17.9944 27.8932 18.382 27.553C18.7697 27.2128 18.9875 26.7514 18.9875 26.2703V22.6422C18.9875 22.1611 18.7697 21.6997 18.382 21.3595C17.9944 21.0192 17.4686 20.8281 16.9203 20.8281ZM27.2562 20.8281H23.1219C22.5736 20.8281 22.0478 21.0192 21.6602 21.3595C21.2725 21.6997 21.0547 22.1611 21.0547 22.6422V26.2703C21.0547 26.7514 21.2725 27.2128 21.6602 27.553C22.0478 27.8932 22.5736 28.0844 23.1219 28.0844H27.2562C27.8045 28.0844 28.3303 27.8932 28.718 27.553C29.1056 27.2128 29.3234 26.7514 29.3234 26.2703V22.6422C29.3234 22.1611 29.1056 21.6997 28.718 21.3595C28.3303 21.0192 27.8045 20.8281 27.2562 20.8281ZM27.2562 31.7125H23.1219C22.5736 31.7125 22.0478 31.9036 21.6602 32.2438C21.2725 32.584 21.0547 33.0454 21.0547 33.5266V37.1547C21.0547 37.6358 21.2725 38.0972 21.6602 38.4374C22.0478 38.7776 22.5736 38.9688 23.1219 38.9688H27.2562C27.8045 38.9688 28.3303 38.7776 28.718 38.4374C29.1056 38.0972 29.3234 37.6358 29.3234 37.1547V33.5266C29.3234 33.0454 29.1056 32.584 28.718 32.2438C28.3303 31.9036 27.8045 31.7125 27.2562 31.7125ZM37.5922 20.8281H33.4578C32.9096 20.8281 32.3838 21.0192 31.9961 21.3595C31.6084 21.6997 31.3906 22.1611 31.3906 22.6422V26.2703C31.3906 26.7514 31.6084 27.2128 31.9961 27.553C32.3838 27.8932 32.9096 28.0844 33.4578 28.0844H37.5922C38.1404 28.0844 38.6662 27.8932 39.0539 27.553C39.4416 27.2128 39.6594 26.7514 39.6594 26.2703V22.6422C39.6594 22.1611 39.4416 21.6997 39.0539 21.3595C38.6662 21.0192 38.1404 20.8281 37.5922 20.8281Z" fill="#021A4B"/>
</g>
<defs>
<clipPath id="clip0_0_4501">
<rect width="49" height="43" fill="white"/>
</clipPath>
</defs>
</svg>
