<svg width="29" height="22" viewBox="0 0 29 22" fill="none" xmlns="http://www.w3.org/2000/svg">
<path d="M2.70844 0C1.99012 0 1.30121 0.285352 0.793283 0.793283C0.285353 1.30121 2.67524e-07 1.99012 2.67524e-07 2.70844V18.9591C-0.000157856 19.3148 0.0697814 19.6672 0.205822 19.9959C0.341863 20.3246 0.54134 20.6234 0.792858 20.875C1.04438 21.1266 1.343 21.3262 1.67169 21.4624C2.00037 21.5986 2.35266 21.6687 2.70844 21.6687H26.1816C26.8999 21.6687 27.5888 21.3834 28.0967 20.8754C28.6046 20.3675 28.89 19.6786 28.89 18.9603V2.70964C28.89 1.99132 28.6046 1.30242 28.0967 0.794487C27.5888 0.286556 26.8999 0.00120366 26.1816 0.00120366H2.70844V0ZM15.0806 4.6236L18.9988 8.54181C19.1632 8.71216 19.2541 8.94026 19.2519 9.17697C19.2497 9.41369 19.1547 9.64008 18.9872 9.80739C18.8197 9.9747 18.5932 10.0695 18.3565 10.0715C18.1198 10.0734 17.8918 9.98232 17.7216 9.81779L15.3454 7.44158V16.4059C15.3454 16.6454 15.2503 16.875 15.081 17.0443C14.9117 17.2136 14.682 17.3087 14.4426 17.3087C14.2032 17.3087 13.9735 17.2136 13.8042 17.0443C13.6349 16.875 13.5398 16.6454 13.5398 16.4059V7.44399L11.1684 9.81779C11.0852 9.90405 10.9856 9.97288 10.8754 10.0202C10.7653 10.0676 10.6469 10.0926 10.527 10.0937C10.4071 10.0948 10.2882 10.072 10.1772 10.0266C10.0663 9.9813 9.96544 9.91431 9.88064 9.82958C9.79583 9.74485 9.72874 9.64408 9.6833 9.53315C9.63785 9.42222 9.61495 9.30335 9.61594 9.18348C9.61692 9.0636 9.64177 8.94512 9.68903 8.83496C9.7363 8.72479 9.80503 8.62513 9.89121 8.54181L13.8034 4.62481C13.8872 4.54091 13.9868 4.47436 14.0964 4.42895C14.2059 4.38355 14.3234 4.36018 14.442 4.36018C14.5606 4.36018 14.678 4.38355 14.7876 4.42895C14.8972 4.47436 14.9967 4.54091 15.0806 4.62481V4.6236Z" fill="#0F094F"/>
</svg>
