<svg width="17" height="18" viewBox="0 0 17 18" fill="none" xmlns="http://www.w3.org/2000/svg">
<path d="M16.2442 8.15944L1.52453 0.35617C1.40916 0.294997 1.27957 0.270486 1.15137 0.285589C1.02317 0.300692 0.901815 0.354765 0.801926 0.441296C0.706532 0.526063 0.63533 0.637362 0.596325 0.76268C0.55732 0.887999 0.552058 1.02237 0.581131 1.15068L2.35418 8.08141H9.92142V9.50018H2.35418L0.554368 16.4096C0.527088 16.5168 0.523903 16.6292 0.545071 16.7379C0.566239 16.8466 0.611168 16.9485 0.676246 17.0355C0.741324 17.1224 0.824735 17.192 0.919772 17.2385C1.01481 17.285 1.11882 17.3073 1.22344 17.3035C1.32818 17.3028 1.43131 17.2761 1.52453 17.2254L16.2442 9.42215C16.3538 9.36262 16.4457 9.27218 16.51 9.16078C16.5742 9.04938 16.6082 8.92136 16.6082 8.79079C16.6082 8.66023 16.5742 8.53221 16.51 8.42081C16.4457 8.30941 16.3538 8.21897 16.2442 8.15944V8.15944Z" fill="#0F094F"/>
</svg>
